<svg xmlns="http://www.w3.org/2000/svg" width="243.505" height="187.925" viewBox="0 0 243.505 187.925">
  <g id="Artwork_22" data-name="Artwork 22" transform="translate(121.752 93.962)">
    <g id="Group_95" data-name="Group 95" transform="translate(-121.752 -93.962)">
      <path id="Path_119" data-name="Path 119" d="M38.16,44.858a41.538,41.538,0,0,1-2.07-14.924c.259-3.365,1.294-7.506,3.106-8.8a11.231,11.231,0,0,1,6.125-2.416,17.277,17.277,0,0,1,6.039.69c2.07.517,3.105-2.071.776-2.847a30.423,30.423,0,0,0-6.47-1.466c-1.035,0-1.294-1.553.259-3.623S48.31,7.92,52.309,6.381c3.364-1.294,11.777-2,16.133-1.38,6.643.949,10.956,2.674,11.733,6.125a8.594,8.594,0,0,1,6.643,4.745c.776,1.812,1.294,3.882-.259,5.952-1.553-3.968-7.247-6.125-10.094-5.866-3.71,2.5-7.764,3.02-9.835,2.243a14.807,14.807,0,0,1-11.56.69c-1.208,3.02.431,8.455.431,11.733-2.329,3.623-5.176,5.176-5.176,6.9,0,2.923.517,8.11.517,8.11L49.2,44.858S46.528,40.8,43.6,40.2C41.518,39.772,39.2,41.322,38.16,44.858Z" transform="translate(-7.923 -1.05)" fill="#cacce6"/>
      <path id="Path_120" data-name="Path 120" d="M93.846,185.6c-.69-11.9-3.451-30.194-4.658-36.751,0-5.866-.863-14.665-.518-17.081-2.243-1.725-3.623-2.761-5-3.969a24.374,24.374,0,0,1,3.279-9.144c3.969,3.623,5.522,7.419,5.522,9.662,4.658,7.764,5.349,11.9,6.211,18.98s1.38,26.7-1.553,37.571A16.525,16.525,0,0,0,93.846,185.6Z" transform="translate(-18.403 -26.099)" fill="#cacce6"/>
      <g id="Group_94" data-name="Group 94">
        <g id="Group_93" data-name="Group 93">
          <g id="Group_90" data-name="Group 90" transform="translate(25.554)">
            <path id="Path_121" data-name="Path 121" d="M43.189,12.843a.909.909,0,0,1-.129-.009.934.934,0,0,1-.8-1.054C42.845,7.529,48,2.793,53.759,1.224,59.579-.362,68.839-.413,75.3,1.106c3.623.852,5.913,2.225,7.425,4.449a.936.936,0,0,1-1.548,1.053c-.827-1.218-2.291-2.736-6.306-3.679a48.912,48.912,0,0,0-20.618.1C49.24,4.4,44.6,8.52,44.115,12.034A.936.936,0,0,1,43.189,12.843Z" transform="translate(-34.848 0)" fill="#767e83"/>
            <path id="Path_122" data-name="Path 122" d="M98.448,23.574a.937.937,0,0,1-.722-1.531A6.665,6.665,0,0,0,99.3,17.455a6.071,6.071,0,0,0-3.415-5.069,10.761,10.761,0,0,0-7.237-.535.936.936,0,0,1-.658-1.754,12.482,12.482,0,0,1,8.818.66,7.9,7.9,0,0,1,4.364,6.7,8.5,8.5,0,0,1-2,5.777A.935.935,0,0,1,98.448,23.574Z" transform="translate(-44.775 -2.108)" fill="#767e83"/>
            <path id="Path_123" data-name="Path 123" d="M97,23.886a.937.937,0,0,1-.874-.6,4.784,4.784,0,0,0-4.212-2.8.936.936,0,1,1,.183-1.864,6.609,6.609,0,0,1,5.775,3.99A.936.936,0,0,1,97,23.886Z" transform="translate(-45.587 -4.095)" fill="#767e83"/>
            <path id="Path_124" data-name="Path 124" d="M81.9,20.794a.936.936,0,0,1-.1-1.867c3.047-.346,5.538-2.745,6.853-4.875a.936.936,0,1,1,1.593.984c-1.547,2.5-4.522,5.328-8.234,5.751A1.008,1.008,0,0,1,81.9,20.794Z" transform="translate(-43.363 -2.993)" fill="#767e83"/>
            <path id="Path_125" data-name="Path 125" d="M64.939,22.253a12.96,12.96,0,0,1-4.576-.8.936.936,0,1,1,.65-1.755,12.484,12.484,0,0,0,6.731.422,11.87,11.87,0,0,0,8.245-6.392.936.936,0,1,1,1.653.879,13.722,13.722,0,0,1-9.572,7.356A17.92,17.92,0,0,1,64.939,22.253Z" transform="translate(-38.698 -2.909)" fill="#767e83"/>
            <path id="Path_126" data-name="Path 126" d="M51.685,51.484a.923.923,0,0,1-.355-.07L49,50.459a.933.933,0,0,1-.51-.508c-1.413-3.417-4.734-4.438-6.192-4.045-1.208.323-1.415,1-1.676,1.855-.049.161-.1.317-.148.461a.936.936,0,0,1-1.764-.629c.043-.119.081-.246.122-.378A3.989,3.989,0,0,1,41.818,44.1c2.3-.618,6.37.719,8.245,4.773l.473.193c-.174-1.332-.389-3.184-.421-4.365-.009-.347-.027-.678-.045-1-.087-1.553-.168-3.02,1-4.217.9-.92,3.2-3.14,4.02-3.926a36.887,36.887,0,0,0-.933-8.44.936.936,0,0,1,1.814-.461,39.392,39.392,0,0,1,.99,9.3.939.939,0,0,1-.288.672c-.032.03-3.208,3.076-4.263,4.158-.566.58-.55,1.361-.47,2.805.019.335.038.684.048,1.049.049,1.864.619,5.723.624,5.762a.937.937,0,0,1-.926,1.073Zm4.338-15.524h0Z" transform="translate(-34.058 -5.709)" fill="#767e83"/>
            <path id="Path_127" data-name="Path 127" d="M35.706,46.431a.936.936,0,0,1-.892-.654,45.964,45.964,0,0,1-1.668-6.593,35.111,35.111,0,0,1,.3-12.112c1.073-5.217,3.693-8.726,6.522-8.732h0a.936.936,0,0,1,0,1.873c-1.828,0-3.845,3.114-4.692,7.236a33.118,33.118,0,0,0-.293,11.421A44.293,44.293,0,0,0,36.6,45.212a.936.936,0,0,1-.609,1.175A.945.945,0,0,1,35.706,46.431Z" transform="translate(-32.76 -4.034)" fill="#767e83"/>
            <path id="Path_128" data-name="Path 128" d="M52.666,75.625a.931.931,0,0,1-.593-.212c-1.37-1.121-2.432-2.814-3.608-5.773a14.215,14.215,0,0,1-7.139-3.8c-1.758-1.7-3.366-5.708-3.583-8.924a.938.938,0,0,1,.871-1,.928.928,0,0,1,1,.871c.183,2.725,1.594,6.326,3.018,7.706a11.856,11.856,0,0,0,6.562,3.346.937.937,0,0,1,.813.6c1.12,2.924,2.094,4.576,3.255,5.527a.937.937,0,0,1-.594,1.661Z" transform="translate(-33.856 -12.298)" fill="#767e83"/>
            <path id="Path_129" data-name="Path 129" d="M71.548,43.524a.936.936,0,0,1-.594-1.66c1.983-1.628,6.839-2.179,10.389-1.179a.936.936,0,1,1-.507,1.8c-3.173-.893-7.35-.28-8.694.824A.937.937,0,0,1,71.548,43.524Z" transform="translate(-41.086 -8.839)" fill="#767e83"/>
            <path id="Path_130" data-name="Path 130" d="M98.559,62.523a.934.934,0,0,1-.677-.29c-1.243-1.3-3.091-6.217-3.041-8.088a.909.909,0,0,1,.96-.91.935.935,0,0,1,.911.96,16.921,16.921,0,0,0,2.524,6.747.936.936,0,0,1-.677,1.582Z" transform="translate(-46.416 -11.708)" fill="#767e83"/>
            <path id="Path_131" data-name="Path 131" d="M96.755,41.413c.769-2.53.581-3.254-.078-4.971-.307-.8-.828-1.925-1.431-3.222-.558-1.2-1.19-2.56-1.759-3.9a.936.936,0,0,0-1.723.731c.582,1.37,1.221,2.746,1.785,3.959.316.681.605,1.305.853,1.858A7.628,7.628,0,0,0,89.009,37.7a.936.936,0,1,0,1.4,1.243c.819-.921,3.7-1.566,4.671-1.042a.885.885,0,0,0,.151.045c.252.807.211,1.349-.267,2.918a10.311,10.311,0,0,0-.335,6.295c.474,1.775.412,7.53.042,11.3-.126,1.278-.417,2.983-.793,4.8a.923.923,0,0,0-1.183.117c-1.115,1.165-7.135,2.562-11.483,1.431a.936.936,0,1,0-.472,1.811,16.8,16.8,0,0,0,4.172.482c3.409,0,6.875-.818,8.554-1.954-.559,2.448-1.214,4.9-1.775,6.623-1.049,3.225-2.225,4.592-4.841,5.627-3.841,1.518-9.311.784-11.939.113-4.438-1.137-7.382-2.36-9-3.744A.936.936,0,0,0,64.7,75.187c1.839,1.573,5.028,2.925,9.75,4.133a29.158,29.158,0,0,0,6.839.829,17.342,17.342,0,0,0,6.253-1.014c3.559-1.408,4.909-3.642,5.933-6.789a83.9,83.9,0,0,0,3.062-13.7c.341-3.467.5-9.722-.1-11.963A8.384,8.384,0,0,1,96.755,41.413Z" transform="translate(-39.713 -6.323)" fill="#767e83"/>
            <path id="Path_132" data-name="Path 132" d="M75.763,51.706a1.753,1.753,0,1,0,1.917-1.573A1.753,1.753,0,0,0,75.763,51.706Z" transform="translate(-42.217 -11.025)" fill="#767e83"/>
            <path id="Path_133" data-name="Path 133" d="M97.009,48.74a1.753,1.753,0,1,0,1.917-1.574A1.753,1.753,0,0,0,97.009,48.74Z" transform="translate(-46.891 -10.373)" fill="#767e83"/>
            <path id="Path_134" data-name="Path 134" d="M53.882,20.7a.931.931,0,0,1-.5-.144c-1.526-.96-6.622-1.669-8.372-1.58a.953.953,0,0,1-.977-.894.936.936,0,0,1,.894-.977c1.8-.069,7.377.56,9.452,1.865a.936.936,0,0,1-.5,1.729Z" transform="translate(-35.24 -3.761)" fill="#767e83"/>
            <path id="Path_135" data-name="Path 135" d="M57.441,13.67a.936.936,0,0,1-.833-1.36c1.7-3.348,6.413-6.294,9.747-6.945A.936.936,0,0,1,66.714,7.2c-2.841.555-7,3.136-8.437,5.956A.936.936,0,0,1,57.441,13.67Z" transform="translate(-37.984 -1.176)" fill="#767e83"/>
          </g>
          <g id="Group_91" data-name="Group 91" transform="translate(0 76.34)">
            <path id="Path_136" data-name="Path 136" d="M1.632,230.3a.937.937,0,0,1-.934-.89C.211,219.675-.041,207.3.005,195.453a.936.936,0,0,1,.936-.932h0a.937.937,0,0,1,.933.94c-.048,11.812.2,24.152.69,33.855a.936.936,0,0,1-.888.981Z" transform="translate(0 -119.128)" fill="#767e83"/>
            <path id="Path_137" data-name="Path 137" d="M1.046,167.145H1.03a.937.937,0,0,1-.92-.952c.051-3.032.122-5.853.213-8.385.459-12.867,4.189-27.437,9.5-37.12,4.2-7.659,13.079-18.236,19-22.635a.936.936,0,0,1,1.116,1.5c-5.1,3.79-13.94,13.772-18.473,22.034-5.183,9.445-8.822,23.689-9.272,36.286-.09,2.52-.161,5.329-.211,8.349A.936.936,0,0,1,1.046,167.145Z" transform="translate(-0.024 -97.867)" fill="#767e83"/>
          </g>
          <path id="Path_138" data-name="Path 138" d="M57.156,139.1a.93.93,0,0,1-.714-.331c-4.979-5.861-9.6-8.27-15.462-8.09a.92.92,0,0,1-.966-.9.935.935,0,0,1,.9-.966c6.411-.213,11.633,2.489,16.949,8.75a.936.936,0,0,1-.713,1.541Z" transform="translate(-8.802 -28.33)" fill="#767e83"/>
          <path id="Path_139" data-name="Path 139" d="M40.568,206.072a.936.936,0,0,1-.855-.553c-1.03-2.3-3.493-6.854-6.1-11.676-3.33-6.162-7.1-13.145-9.129-17.67-4.713-10.536-6.654-21.905-6.463-28.01a26.9,26.9,0,0,1,2.286-9.9.936.936,0,1,1,1.661.862,25.146,25.146,0,0,0-2.076,9.1c-.184,5.9,1.709,16.922,6.3,27.187,2,4.461,5.752,11.412,9.066,17.544,2.738,5.065,5.1,9.439,6.161,11.8a.936.936,0,0,1-.853,1.319Z" transform="translate(-3.961 -30.301)" fill="#767e83"/>
          <path id="Path_140" data-name="Path 140" d="M199.583,177.49c-.317-.268-1.384-1.063-3.076-2.315a2.337,2.337,0,0,0-.495-2.022c-.562-.811-3.608-4.651-4.668-5.774a4.55,4.55,0,0,0-3.8-1.5,5.562,5.562,0,0,0-1.23-2.8c-.29-.319-1.653-1.659-3.862-3.828-1.828-1.8-3.9-3.831-4.415-4.374-.895-.948-2.626-1.456-5.28-1.558-.734-.3-1.84-.672-3.081-1.094-1.587-.538-3.387-1.149-4.282-1.566a8.474,8.474,0,0,0-5.453-.351c-.392.093-1.831.478-3.653.966-3.01.807-7.133,1.91-8.484,2.211a11.318,11.318,0,0,1-4.962-.12.868.868,0,0,0,0-.1.927.927,0,0,0,.1-.3.937.937,0,0,0-.795-1.059l-4.483-.636c0-.017,0-.033,0-.05-.333-2-2.282-2.559-4.338-2.865-.4-.06-1.944-.27-4.134-.567-7.65-1.039-23.567-3.2-25.92-3.754a10.375,10.375,0,0,0-5.543.52,9.934,9.934,0,0,1-2.624.539c-.976,0-2.4-3.251-3.25-5.193a30.636,30.636,0,0,0-1.814-3.718.937.937,0,0,0-.267-.275c-.02-.1-.038-.215-.059-.314-1.7-8.344-2.9-12.878-6.456-17.846a11.65,11.65,0,0,0-.583-2.875.906.906,0,0,0,.14-.516c-.445-7.509-3.889-11.311-4.575-12a.935.935,0,0,0-1.324,0,.924.924,0,0,0-.267.623,23.329,23.329,0,0,1-.3-3.561c-.038-3.844.48-6.852,1.351-7.849a.936.936,0,1,0-1.409-1.232c-1.639,1.874-1.84,6.506-1.814,9.1a24.737,24.737,0,0,0,.629,5.407c-4.393-4.071-11.973-9.659-18.329-14.344-4.653-3.43-9.06-6.68-10.453-8.065l0-.009c.885-3.243,1.525-5.587.352-8.961a.936.936,0,1,0-1.768.615c.982,2.825.466,4.718-.389,7.853l-.14.51c-.006.023,0,.047,0,.071a.96.96,0,0,0-.012.19.97.97,0,0,0,.014.172.865.865,0,0,0,.057.165.894.894,0,0,0,.086.168c.014.02.017.044.033.064,1.006,1.257,4.878,4.138,11.112,8.733,7.545,5.561,16.825,12.4,20.2,16.258-1.973,3.318-3.444,9.967-3.719,13.3a84.325,84.325,0,0,0-5.605-8.643c-2.768-3.69-11.077-13.482-16.573-19.962-2.453-2.891-4.391-5.175-4.937-5.857-1.121-1.4-.884-1.825-.583-2.361.08-.144.156-.282.216-.42a.936.936,0,1,0-1.715-.751c-.037.084-.086.169-.135.257a3.025,3.025,0,0,0-.446,2.126.908.908,0,0,0-.09-.091.936.936,0,0,0-1.3.259c-.292.438-.537.8-.753,1.112a21.1,21.1,0,0,0-1.774,2.953.935.935,0,0,0,.134,1.037C42.012,95.12,54,111.062,56.8,119.618a.936.936,0,0,0,.586.6c2.009.689,4.694,1.621,6.884,2.4-1.579.115-3.108.23-3.658.271a.936.936,0,0,0-.607,1.58c6.513,6.831,18.215,23.741,21.936,40.08.466,4.226.778,8.009.836,10.552a3.555,3.555,0,0,0-.974.778c-.572.686-1.242,1.009-1.7.823-.437-.175-.674-.791-.619-1.608.189-2.83-1.589-9.193-3.308-15.346l-.077-.276c-1.867-6.68-8.532-20.212-13.985-28.39a.936.936,0,0,0-1.558,1.039c5.27,7.9,11.947,21.442,13.739,27.855l.077.277c1.6,5.722,3.411,12.206,3.244,14.716a3.271,3.271,0,0,0,1.791,3.47,3.421,3.421,0,0,0,3.838-1.362c1.36-1.633,8.646-1.573,11.043-1.549l.828.005c1.428,0,13.528-.615,24.2-1.159,8.385-.426,16.307-.829,17.006-.829,1.347,0,2.686,1.3,3.819,2.579,1.236,1.389,6.213,8.454,6.142,15.153a.936.936,0,0,0,.926.946h.01a.936.936,0,0,0,.935-.926c.08-7.367-5.2-14.824-6.614-16.417-.3-.343-.626-.685-.961-1.014.549-.068,1.2-.156,1.694-.245l.149-.028a2.637,2.637,0,0,1,2.7.729c1.264,1.055,3.791,4.2,5.236,9.292a23.6,23.6,0,0,1,.584,9.274.936.936,0,0,0,1.849.293,25.635,25.635,0,0,0-.633-10.077,23.728,23.728,0,0,0-4.741-9.144c3-.664,8.414-2.161,10.2-2.824,2.179-.81,8.662-3.391,10.516-4.318a9.7,9.7,0,0,1,5.392-1.179,31.042,31.042,0,0,0,3.281.279c.779.039,1.579.08,2.054.152a.921.921,0,0,0-.508.711.936.936,0,0,0,.827,1.034c1.152.129,7.5,0,8.476-.056a2.7,2.7,0,0,1,2.334.914c.709.75,2.433,2.881,3.549,4.311-1.217-.9-2.239-1.665-2.574-1.941a5.494,5.494,0,0,0-3.66-1.108l-.2-.009c-.671-.032-2.4-.062-4.236-.1-1.638-.028-3.278-.057-4.027-.086a.936.936,0,1,0-.072,1.871c.757.029,2.412.058,4.066.088,1.739.03,3.537.062,4.179.092l.209.009a3.825,3.825,0,0,1,2.554.683c.535.441,2.451,1.855,4.48,3.353,1.849,1.365,3.761,2.778,4.126,3.086a.239.239,0,0,1,.055.26c-.072.22-.355.367-.757.4a10.152,10.152,0,0,1-4.492-1.157l-.92-.409c-1.316-.588-2.807-1.254-3.924-1.608a.947.947,0,0,0-.284-.044c-.715,0-1.84-.055-2.927-.108-1.176-.057-2.391-.116-3.243-.116a.9.9,0,0,0-.094.019c-1.158-.261-2.184-.5-2.745-.656a.936.936,0,0,0-.5,1.805c1.254.346,4.626,1.078,6.857,1.562.934.2,1.672.363,1.974.434a10.009,10.009,0,0,1,2.651,1.172c.361.2,1,.5,1.732.856a29.419,29.419,0,0,1,4.248,2.281.314.314,0,0,1,.084.393c-.165.358-.848.644-2,.482a27.129,27.129,0,0,1-7.491-2.425.931.931,0,0,0-.524-.08,34.787,34.787,0,0,1-8.325-.183.947.947,0,0,0-.585.127c-4.478,2.686-8.278,4.407-10.7,4.848a22.179,22.179,0,0,1-8.35.1,29.616,29.616,0,0,0-5.051-.317v.936l.076.936a29.343,29.343,0,0,1,4.633.285,22.28,22.28,0,0,0,4.116.385,27.308,27.308,0,0,0,4.911-.478c3.289-.6,7.775-2.97,11.055-4.921a36.561,36.561,0,0,0,8.2.178,28.607,28.607,0,0,0,7.772,2.467c2.249.323,3.52-.59,3.964-1.55a2.2,2.2,0,0,0-.546-2.583,8.331,8.331,0,0,0-1.352-.89,7.765,7.765,0,0,0,1.448.147q.231,0,.462-.016a2.566,2.566,0,0,0,2.4-1.684A2.1,2.1,0,0,0,199.583,177.49ZM135.943,152.8a.925.925,0,0,0,.408.176l4.113.583c-2.135,2.714-2.836,8.78-2.728,10.166a14.623,14.623,0,0,0,.585,3.392l-5.809-.507a.933.933,0,0,0-.621.182c-.03-.1-.06-.192-.089-.3-.48-1.832.05-7.4.818-10.665a4.017,4.017,0,0,1,2.048-2.781A2.365,2.365,0,0,1,135.943,152.8ZM134,168.622a.91.91,0,0,0-.109.134c-.3.568-.541.683-.579.683h0c-.1-.011-.415-.229-.786-.945ZM76.921,103.685a14.977,14.977,0,0,1,3.4,6.69,28.682,28.682,0,0,0-2.481-3.007.929.929,0,0,0-.073-.062,26.747,26.747,0,0,1-1.045-3.919A.936.936,0,0,0,76.921,103.685Zm-2.945,18.546a24.957,24.957,0,0,1,.371-3.048l.3.3a15.811,15.811,0,0,0,2.835,2.5c.141,2.146.163,4.407.186,6.79.014,1.49.03,3,.075,4.51a86.872,86.872,0,0,0-4.728-10.158A.931.931,0,0,0,73.976,122.231Zm-11.3,2.373c2.631-.2,5.614-.409,5.925-.41a.961.961,0,0,0,.942-.788c.156-.934.157-.947-11.115-4.814-3.146-8.984-14.513-23.969-18.017-28.116a20.165,20.165,0,0,1,1.362-2.183c.218-.32.467-.684.764-1.129a.917.917,0,0,0,.126-.307,7,7,0,0,0,.907,1.419c.563.7,2.412,2.883,4.97,5.9,5.484,6.462,13.77,16.228,16.5,19.873a86.274,86.274,0,0,1,12.515,24.371,124.347,124.347,0,0,1,3.017,15.554A106.449,106.449,0,0,0,62.674,124.6Zm79.4,47.142-.14.026c-.948.172-2.625.35-2.642.351a.922.922,0,0,0-.554.278,4.721,4.721,0,0,0-2.421-.735c-.747,0-8.326.385-17.1.832-10.653.542-22.728,1.156-24.109,1.156l-.812,0a40.14,40.14,0,0,0-9.67.722,240.979,240.979,0,0,0-4.339-32.838.947.947,0,0,0,.012-.373,79.535,79.535,0,0,1-.764-12.4c-.025-2.6-.049-5.047-.225-7.4a.939.939,0,0,0-.479-.748,12.406,12.406,0,0,1-2.854-2.438c-.273-.277-.571-.58-.9-.913a.938.938,0,0,0-.3-.2,32.45,32.45,0,0,1,2.514-7.516c2.667,3.056,4.018,5.867,4.122,8.567a.937.937,0,0,0,.178.515c3.463,4.761,4.629,9.145,6.3,17.345,1.292,6.339,1.362,26.721-.843,36.4a.936.936,0,0,0,.705,1.12.908.908,0,0,0,.208.024.935.935,0,0,0,.912-.729c.248-1.089.466-2.305.66-3.606a105.061,105.061,0,0,0,11.662,1.243c.9.028,3.777.165,7.415.339,7.679.367,18.042.863,20.854.863.162,0,.3,0,.41-.005a.935.935,0,0,0,.906-.964.907.907,0,0,0-.964-.907c-1.949.058-13.482-.491-21.116-.856-3.647-.175-6.527-.313-7.446-.341a102.5,102.5,0,0,1-11.467-1.229,153.747,153.747,0,0,0,.6-26.138c1.339,3.041,2.652,5.78,4.731,5.78a11.192,11.192,0,0,0,3.154-.616,8.763,8.763,0,0,1,4.584-.492c2.44.574,17.829,2.664,26.1,3.786,2.178.3,3.71.5,4.11.563a5.646,5.646,0,0,1,2.387.718,4.435,4.435,0,0,0-1.584.431A5.869,5.869,0,0,0,130.8,155.4c-.74,3.146-1.423,9.216-.807,11.567.887,3.391,2.182,4.229,3.112,4.335a1.793,1.793,0,0,0,.214.012c.584,0,1.5-.269,2.237-1.686a.919.919,0,0,0-.02-.869l4.245.371c.028,0,.055,0,.083,0a.94.94,0,0,0,.155-.03,1.692,1.692,0,0,0,.381.049,1.972,1.972,0,0,0,.878-.218.914.914,0,0,0,.39-1.245.966.966,0,0,0-1.229-.433,2.969,2.969,0,0,1-.473-1.171,16.191,16.191,0,0,1,2.982.5l.9,5.064A5.015,5.015,0,0,0,142.077,171.745Zm3.793.61-.888-5.02q.357.17.706.362a21.383,21.383,0,0,0,8.457,2.34c.227.015.434.022.651.033C151.911,170.93,147.542,172.077,145.87,172.355Zm27.958-8.57a8.726,8.726,0,0,0-3.217.166c-1.644-.969-5.429-1.665-6.384-1.8.473-.321.95-.672,1.441-1.074a43.265,43.265,0,0,0,6.25.7c.466.332.963.715,1.486,1.115.419.321.866.661,1.327,1C174.412,163.867,174.1,163.832,173.828,163.786Zm5.664.495a10.141,10.141,0,0,0-1.514-.178.921.921,0,0,0-.369-.486c-1.069-.676-2.083-1.454-3.066-2.207-.633-.485-1.23-.942-1.781-1.325a.935.935,0,0,0-.512-.167,39.356,39.356,0,0,1-6.613-.758.932.932,0,0,0-.823.2,16.166,16.166,0,0,1-2.853,1.984,14.278,14.278,0,0,1-2.788-1.79,11.712,11.712,0,0,0-4.691-2.864.936.936,0,1,0-.415,1.825,10.368,10.368,0,0,1,3.863,2.438,14.531,14.531,0,0,0,6.037,3.059,29.3,29.3,0,0,1,3.9.862c-.193.087-.386.171-.577.266-1.165.582-4.364,1.9-7.014,2.949a.884.884,0,0,0-.292-.027,31.913,31.913,0,0,1-5.711.109,19.434,19.434,0,0,1-7.68-2.11,15.893,15.893,0,0,0-6.936-1.879c-.02-.189-.038-.385-.055-.6-.119-1.523.7-6.565,2.151-8.645a.907.907,0,0,0,.4.205,13.429,13.429,0,0,0,6.062.179c1.389-.309,5.367-1.374,8.562-2.23,1.735-.465,3.233-.866,3.6-.952a6.645,6.645,0,0,1,4.232.225c.988.461,2.76,1.062,4.472,1.644,1.415.48,2.878.977,3.4,1.236a6.417,6.417,0,0,1,2.693,2.15c.892,1.14,4.507,5.035,6.243,6.906.424.456.732.787.851.919l.016.02A14.035,14.035,0,0,0,179.492,164.28Zm5.421,1.676a5.762,5.762,0,0,0-1.268-2c-.121-.133-.433-.47-.863-.933-1.585-1.708-5.3-5.708-6.141-6.786-.08-.1-.154-.187-.231-.281a1.411,1.411,0,0,1,.268.211c.538.569,2.534,2.529,4.464,4.425,1.727,1.7,3.513,3.449,3.789,3.753a4.056,4.056,0,0,1,.75,1.593Z" transform="translate(-8.436 -16.022)" fill="#767e83"/>
          <g id="Group_92" data-name="Group 92" transform="translate(143.577 91.5)">
            <path id="Path_141" data-name="Path 141" d="M254.152,211.494a.935.935,0,0,1-.776-.412l-22.747-33.6c-2.377.063-11.975.317-12.451.317a.936.936,0,1,1,0-1.872c.421,0,9.465-.238,12.914-.329a.883.883,0,0,1,.8.41l23.035,34.023a.937.937,0,0,1-.774,1.462Z" transform="translate(-191.361 -130.124)" fill="#767e83"/>
            <path id="Path_142" data-name="Path 142" d="M264.389,202.9a.92.92,0,0,1-.456-.119.935.935,0,0,1-.36-1.274l30.09-53.752-31.272-28.03-22.969,42.044a.936.936,0,0,1-1.643-.9l23.535-43.081a.936.936,0,0,1,1.446-.248L295.47,146.86a.934.934,0,0,1,.192,1.154l-30.457,54.405A.933.933,0,0,1,264.389,202.9Z" transform="translate(-195.854 -117.302)" fill="#767e83"/>
            <path id="Path_143" data-name="Path 143" d="M185,230.734a.936.936,0,0,1-.02-1.871l64.707-1.446h.021a.936.936,0,0,1,.021,1.872l-64.708,1.445Z" transform="translate(-184.064 -141.523)" fill="#767e83"/>
          </g>
        </g>
        <path id="Path_144" data-name="Path 144" d="M41.013,35.984a.936.936,0,0,1-.041-1.871c2.935-.133,8.274-3.214,9.181-5.806a.936.936,0,1,1,1.768.619C50.74,32.3,44.7,35.818,41.056,35.983Z" transform="translate(-8.816 -6.088)" fill="#767e83"/>
        <path id="Path_145" data-name="Path 145" d="M66.232,237.882q-.37,0-.577-.016c-4.7-.392-11.172-2.786-13.449-5.973a.936.936,0,0,1,1.523-1.088c1.725,2.414,7.257,4.793,12.081,5.2,3.729.331,54.342-4.25,80.587-6.7,2.073-.173,2.636-.452,2.749-1.353a.936.936,0,0,1,1.857.232c-.33,2.644-2.8,2.849-4.441,2.986C143.556,231.44,74.589,237.882,66.232,237.882Z" transform="translate(-11.445 -49.958)" fill="#767e83"/>
      </g>
    </g>
  </g>
</svg>
