<svg xmlns="http://www.w3.org/2000/svg" width="187.109" height="181.855" viewBox="0 0 187.109 181.855">
  <g id="Artwork_23" data-name="Artwork 23" transform="translate(93.555 90.928)">
    <g id="Group_81" data-name="Group 81" transform="translate(-93.555 -90.928)">
      <path id="Path_49" data-name="Path 49" d="M78.968,235.443H162.33a2.956,2.956,0,0,0,2.878-3.012L167.4,188a3.022,3.022,0,0,0-3.013-3.013H76.944A3.021,3.021,0,0,0,73.932,188l2.158,44.43A2.956,2.956,0,0,0,78.968,235.443Z" transform="translate(-21.756 -54.435)" fill="#f7c8c9"/>
      <path id="Path_50" data-name="Path 50" d="M74.8,85.192c.585-3.747,3.512-9.016,5.737-12.294A94.677,94.677,0,0,1,82.18,53.112a106.619,106.619,0,0,1,4.1-14.6c1.717-5,5.62-11.748,7.61-13.386s3.864-2.81,5.5-1.99a3.47,3.47,0,0,0,3.824-.234,10.68,10.68,0,0,1,7.571-2.186A19.9,19.9,0,0,1,121.635,24.9c3.63,2.81,7.415,7.22,8.508,10.03,1.063,2.735,2.965,7.571,2.965,12.41-1.522-.819-1.756.742-2.342,1.8a8.3,8.3,0,0,0-1.287,3.278c.116-4.1,0-5.62,0-7.259s-1.689-5.428-3.279-7.024c-3.161-.469-5.971-1.757-8.781-2.81s-7.142-1.522-8.9-2.576a19.081,19.081,0,0,1-4.8-3.863c-.7-1.054-1.522-.351-1.873,1.522s-1.339,5.425-3.279,7.259-5.034,4.1-5.971,5.854-1.054,3.161-.586,5.737,1.288,6.908-.819,9.367a8.666,8.666,0,0,0-2.693.7c.937,2.459,2.693,5.152,4.566,5.269.7,2.692,1.405,5.971,2.459,7.493s1.873,4.215,3.161,5.152a15.175,15.175,0,0,1-5.854,5.737c-2.575,1.287-6.556.819-7.727,1.287a63.5,63.5,0,0,1-4.683,6.44c.586-2.107-.234-4.1-.117-5.152a21.972,21.972,0,0,1-6.2,5.035C75.038,89.289,74.569,86.6,74.8,85.192Z" transform="translate(-21.805 -6.076)" fill="#f7c8c9"/>
      <path id="Path_51" data-name="Path 51" d="M155.359,68.306a95.761,95.761,0,0,0,.586,10.3,48.785,48.785,0,0,0,.819,7.61c-1.288-1.639-2.224-2.693-2.224-2.693,1.054,4.918,2.107,7.493,3.4,9.249a42.327,42.327,0,0,0,5.151,5.152,12.065,12.065,0,0,1,2.459,2.927c-2.575-.234-10.771-1.756-12.059-2.342a3,3,0,0,1-3.4-.937,48.985,48.985,0,0,1-5.152-6.088c2.81-5.62,5.826-12.1,5.737-15.454C152.9,74.98,153.369,68.54,155.359,68.306Z" transform="translate(-42.651 -20.1)" fill="#f7c8c9"/>
      <g id="Group_74" data-name="Group 74" transform="translate(118.178)">
        <path id="Path_52" data-name="Path 52" d="M172.264,20.519a1.058,1.058,0,0,1-1.037-.847l-3.752-18.4A1.058,1.058,0,1,1,169.55.847l3.752,18.4a1.059,1.059,0,0,1-.826,1.249A1.1,1.1,0,0,1,172.264,20.519Z" transform="translate(-167.454 0)" fill="#f7c8c9"/>
        <path id="Path_53" data-name="Path 53" d="M214.521,27.407a1.058,1.058,0,0,1-.89-1.63l10.777-16.8a1.059,1.059,0,1,1,1.783,1.143l-10.778,16.8A1.055,1.055,0,0,1,214.521,27.407Z" transform="translate(-180.993 -2.498)" fill="#f7c8c9"/>
        <path id="Path_54" data-name="Path 54" d="M228.763,45.3a1.058,1.058,0,0,1-.482-2l11.8-6.021a1.059,1.059,0,0,1,.963,1.886l-11.806,6.021A1.047,1.047,0,0,1,228.763,45.3Z" transform="translate(-185.183 -10.935)" fill="#f7c8c9"/>
        <path id="Path_55" data-name="Path 55" d="M201.252,22.595a1.161,1.161,0,0,1-.148-.01,1.059,1.059,0,0,1-.9-1.2l2.186-15.61a1.059,1.059,0,0,1,2.1.294L202.3,21.683A1.058,1.058,0,0,1,201.252,22.595Z" transform="translate(-177.088 -1.432)" fill="#f7c8c9"/>
        <path id="Path_56" data-name="Path 56" d="M235.13,65.778a1.059,1.059,0,0,1-.183-2.1l19.8-3.5a1.059,1.059,0,1,1,.368,2.085l-19.8,3.5A1.1,1.1,0,0,1,235.13,65.778Z" transform="translate(-187.058 -17.704)" fill="#f7c8c9"/>
      </g>
      <g id="Group_80" data-name="Group 80" transform="translate(0 10.649)">
        <g id="Group_76" data-name="Group 76" transform="translate(97.262 36.538)">
          <g id="Group_75" data-name="Group 75">
            <ellipse id="Ellipse_19" data-name="Ellipse 19" cx="1.647" cy="1.647" rx="1.647" ry="1.647" fill="#767e83"/>
          </g>
        </g>
        <g id="Group_79" data-name="Group 79">
          <path id="Path_57" data-name="Path 57" d="M136.439,42.091a.842.842,0,0,1-.507-.169c-1.74-1.3-6.433-2.651-9.861-3.635-1.565-.449-2.916-.836-3.9-1.181-2.934-1.027-5.841-2.389-7.236-5.379a.847.847,0,0,1,1.535-.716c.925,1.982,2.68,3.244,6.261,4.5.939.329,2.269.711,3.808,1.152,3.752,1.076,8.422,2.416,10.41,3.908a.847.847,0,0,1-.509,1.524Z" transform="translate(-33.798 -19.63)" fill="#767e83"/>
          <path id="Path_58" data-name="Path 58" d="M122,32.781a.847.847,0,0,1-.577-1.468c2.758-2.561,8.544-3.265,12.757-.231a.847.847,0,0,1-.99,1.375c-3.863-2.781-8.646-1.73-10.615.1A.843.843,0,0,1,122,32.781Z" transform="translate(-35.651 -19.207)" fill="#767e83"/>
          <path id="Path_59" data-name="Path 59" d="M119.336,26.4a.836.836,0,0,1-.314-.061.847.847,0,0,1-.472-1.1,5.985,5.985,0,0,1,6.373-3.645.847.847,0,1,1-.312,1.665,4.294,4.294,0,0,0-4.488,2.61A.847.847,0,0,1,119.336,26.4Z" transform="translate(-34.867 -16.977)" fill="#767e83"/>
          <path id="Path_60" data-name="Path 60" d="M95.878,41.172a.908.908,0,0,1-.115-.008.847.847,0,0,1-.726-.953c.732-5.381,5.618-11.906,10.823-12.253a.847.847,0,0,1,.113,1.69c-4.355.29-8.625,6.141-9.258,10.791A.846.846,0,0,1,95.878,41.172Z" transform="translate(-27.964 -18.876)" fill="#767e83"/>
          <path id="Path_61" data-name="Path 61" d="M97.976,62.995a.834.834,0,0,1-.378-.09.846.846,0,0,1-.379-1.136c1.3-2.611,1.135-4.753.919-7.466-.091-1.144-.186-2.326-.186-3.677,0-4.108,1.853-5.577,3.645-7,.411-.326.837-.663,1.236-1.032a15.768,15.768,0,0,0,5.015-8.614.847.847,0,0,1,1.654.368,17.373,17.373,0,0,1-5.52,9.491c-.445.411-.9.769-1.332,1.114-1.678,1.33-3,2.38-3,5.67,0,1.283.091,2.432.179,3.543.227,2.857.424,5.325-1.092,8.357A.847.847,0,0,1,97.976,62.995Z" transform="translate(-28.582 -20.454)" fill="#767e83"/>
          <g id="Group_77" data-name="Group 77" transform="translate(78.917)">
            <path id="Path_62" data-name="Path 62" d="M129.519,19.326c5.183,3.078,11.412,9.22,13.288,15,1.913,5.9,2.6,8.409,1.971,12.2a.847.847,0,0,0,.7.975.863.863,0,0,0,.14.011.847.847,0,0,0,.834-.708c.694-4.16-.025-6.813-2.03-13-2.1-6.472-8.746-12.8-14.034-15.938-5.424-3.22-14.065-4.08-18.286-.227a.847.847,0,0,0,1.142,1.251C116.138,16.248,123.536,15.774,129.519,19.326Z" transform="translate(-111.822 -15.089)" fill="#767e83"/>
            <path id="Path_63" data-name="Path 63" d="M149.449,60.825a.847.847,0,0,0,.807.594l.059,0a.847.847,0,0,0,.778-.706c.578-3.467,1.654-5.831,2.112-6a.847.847,0,0,0,.459-1.631,1.637,1.637,0,0,0-1.344.219,4.629,4.629,0,0,0-1.468,2.021c.013-.216.026-.43.04-.641a20.924,20.924,0,0,0,.04-3.771,14.476,14.476,0,0,0-5.076-8.767.847.847,0,0,0-1.072,1.311,12.723,12.723,0,0,1,4.47,7.693,20.143,20.143,0,0,1-.054,3.427A19.049,19.049,0,0,0,149.449,60.825Z" transform="translate(-121.43 -22.993)" fill="#767e83"/>
          </g>
          <path id="Path_64" data-name="Path 64" d="M72.555,91.074a.847.847,0,0,1-.289-1.643c1.691-.615,3.865-3.658,5.032-5.292,1.47-2.059,2.184-6.97,1.658-11.424-.895-7.6.327-15.715,1.325-21.154,1.208-6.582,3.235-15.611,5.306-21.209C87.935,24,93.352,17.87,98.355,18.615a.847.847,0,1,1-.248,1.675c-4.1-.607-8.863,5.054-10.932,10.648-2.036,5.5-4.089,14.712-5.229,20.926-.977,5.333-2.177,13.274-1.308,20.652.495,4.205-.02,9.887-1.963,12.607-1.845,2.583-3.815,5.166-5.831,5.9A.849.849,0,0,1,72.555,91.074Z" transform="translate(-21.101 -16.109)" fill="#767e83"/>
          <path id="Path_65" data-name="Path 65" d="M132.647,89.728a.7.7,0,0,0-.964-.257c-4.176,2.417-9.786,2.178-13.233.934a.706.706,0,0,0-.479,1.327c.1.037.221.065.327.1,1.1,2.874,4.227,3.9,6.945,3.9.115,0,.229,0,.342-.006,2.7-.085,5.786-1.63,6.37-4.8.145-.077.293-.147.435-.229A.7.7,0,0,0,132.647,89.728Zm-7.107,4.586c-.7.027-3.813,0-5.358-1.98a19.373,19.373,0,0,0,3.941.415,17.656,17.656,0,0,0,6.106-1.05C129.268,93.643,126.873,94.272,125.541,94.314Z" transform="translate(-34.578 -36.949)" fill="#767e83"/>
          <path id="Path_66" data-name="Path 66" d="M130.434,79.62a.846.846,0,0,1-.807-.592,19.027,19.027,0,0,1-.5-8.515.847.847,0,0,1,1.638.431,17.289,17.289,0,0,0,.48,7.575.848.848,0,0,1-.808,1.1Z" transform="translate(-37.912 -31.212)" fill="#767e83"/>
          <path id="Path_67" data-name="Path 67" d="M116.009,63.153a.848.848,0,0,1-.376-.089c-2.811-1.4-6.415-1.627-8.571-.549A.847.847,0,1,1,106.3,61c2.635-1.318,6.78-1.093,10.082.548a.847.847,0,0,1-.378,1.606Z" transform="translate(-31.144 -28.348)" fill="#767e83"/>
          <path id="Path_68" data-name="Path 68" d="M133.426,62.425a.847.847,0,0,1-.558-1.484c2-1.75,6.522-3.118,9.362-2.258a.847.847,0,0,1-.491,1.621c-2.055-.62-5.967.344-7.755,1.911A.844.844,0,0,1,133.426,62.425Z" transform="translate(-39.013 -27.84)" fill="#767e83"/>
          <path id="Path_69" data-name="Path 69" d="M111.292,69.668a1.746,1.746,0,1,0,1.746-1.746A1.746,1.746,0,0,0,111.292,69.668Z" transform="translate(-32.749 -30.636)" fill="#767e83"/>
          <path id="Path_70" data-name="Path 70" d="M87.776,81.723a.847.847,0,0,1-.789-.538c-.968-2.476-.867-5.461.312-9.127.331-1.031.869-2.291,1.492-3.75,1.234-2.891,2.77-6.49,3.161-9.57a.847.847,0,0,1,1.68.213c-.421,3.315-2.008,7.034-3.284,10.022-.606,1.421-1.13,2.648-1.437,3.6-1.054,3.279-1.168,5.893-.347,7.991a.846.846,0,0,1-.481,1.1A.829.829,0,0,1,87.776,81.723Z" transform="translate(-25.404 -27.716)" fill="#767e83"/>
          <path id="Path_71" data-name="Path 71" d="M93.88,94.359a60.348,60.348,0,0,1-1.535-7.191.847.847,0,1,0-1.678.233,61.534,61.534,0,0,0,1.574,7.385,26.606,26.606,0,0,1,1.183,6.668.834.834,0,0,0-.327.02c-.5.132-.952.258-1.374.375a10.971,10.971,0,0,1-3.8.69.81.81,0,0,0-.234.013c1.655-4.57,2.449-9.781,1.951-13.368a.847.847,0,0,0-1.678.233c.822,5.921-2.23,16.823-6.6,20.288a.847.847,0,1,0,1.052,1.327,17.933,17.933,0,0,0,4.745-7.116.837.837,0,0,0,.524.3,4.486,4.486,0,0,0,.635.044,15.633,15.633,0,0,0,3.859-.778c.343-.1.715-.2,1.106-.3a10.724,10.724,0,0,1-.826,2.65.847.847,0,1,0,1.541.7C95.936,102.259,95.029,98.773,93.88,94.359Z" transform="translate(-23.846 -36.084)" fill="#767e83"/>
          <path id="Path_72" data-name="Path 72" d="M56.894,205.8c-.023,0-.044,0-.066,0-1.3-.1-3.081-.211-5.027-.332-3.362-.21-7.173-.447-9.841-.709l-.486-.047c-4.618-.447-9.853-.955-13.217-5.441-2.767-3.689-1.437-10.7-.215-14.254,2.978-8.671,11.484-31.869,14.386-39.359,1.145-2.954,2.886-7.09,4.285-10.413l.532-1.265a.847.847,0,0,1,1.562.656l-.533,1.267c-1.395,3.313-3.131,7.436-4.266,10.367-2.9,7.479-11.391,30.64-14.364,39.3-1.206,3.51-2.21,9.786-.033,12.688,2.917,3.887,7.548,4.336,12.026,4.77l.489.048c2.637.258,6.432.495,9.781.7,1.955.122,3.748.234,5.051.334a.847.847,0,0,1-.064,1.692Z" transform="translate(-7.835 -49.922)" fill="#767e83"/>
          <path id="Path_73" data-name="Path 73" d="M74.237,93.6a.848.848,0,0,0-1.154.323,51.463,51.463,0,0,0-5.106,12.789,11.907,11.907,0,0,0-6.239,4.805c-.428.692-1.3,2.623-2.07,4.328-.368.814-.7,1.547-.911,1.987a.847.847,0,1,0,1.526.736c.217-.449.554-1.2.929-2.027.674-1.492,1.6-3.535,1.967-4.134a9.844,9.844,0,0,1,4.538-3.773c0,.061-.009.131-.009.188a.847.847,0,1,0,1.694,0,6.418,6.418,0,0,1,.068-.816,13.633,13.633,0,0,1,2.25-.446.847.847,0,0,0-.169-1.685,14.49,14.49,0,0,0-1.707.291A51.407,51.407,0,0,1,74.56,94.754.848.848,0,0,0,74.237,93.6Z" transform="translate(-17.265 -38.16)" fill="#767e83"/>
          <path id="Path_74" data-name="Path 74" d="M75.342,165.455a.847.847,0,0,1-.841-.753c-.066-.6-.169-1.411-.291-2.375-.212-1.678-.475-3.768-.7-5.947a167.943,167.943,0,0,0-5.565-24.5.847.847,0,0,1,1.6-.547A170.653,170.653,0,0,1,75.191,156.2c.227,2.162.49,4.242.7,5.914.122.973.226,1.8.294,2.4a.851.851,0,0,1-.843.941Z" transform="translate(-19.98 -49.127)" fill="#767e83"/>
          <path id="Path_75" data-name="Path 75" d="M16.759,227.766H.847a.847.847,0,0,1,0-1.694H16.759a.847.847,0,0,1,0,1.694Z" transform="translate(0 -77.174)" fill="#767e83"/>
          <path id="Path_76" data-name="Path 76" d="M246.473,227.766H212.48a.847.847,0,1,1,0-1.694h33.993a.847.847,0,1,1,0,1.694Z" transform="translate(-62.276 -77.174)" fill="#767e83"/>
          <path id="Path_77" data-name="Path 77" d="M98.4,161.61a.845.845,0,0,1-.769-.49c-1.712-3.687-5.812-13.138-6.92-21.262a.848.848,0,0,1,.69-.948l5-.892-4.875-2.323a.847.847,0,0,1-.476-.865c.436-3.676,1.855-8.324,4.6-15.069a.846.846,0,1,1,1.568.638c-2.535,6.23-3.91,10.6-4.407,14.031l6.7,3.193a.847.847,0,0,1-.215,1.6L92.5,140.432c1.227,7.711,5.037,16.48,6.659,19.974a.846.846,0,0,1-.767,1.2Z" transform="translate(-26.69 -45.734)" fill="#767e83"/>
          <g id="Group_78" data-name="Group 78" transform="translate(45.251 32.453)">
            <path id="Path_78" data-name="Path 78" d="M179.8,153.724l-.237-.965c-1.181-4.808-2.583-9.448-3.709-13.175l-.26-.857a.846.846,0,1,0-1.62.489l.258.858c1.121,3.709,2.515,8.325,3.685,13.09l.238.966a36.112,36.112,0,0,1,1.455,8.144c0,3.975-.97,6.544-3.246,8.593-2.233,2.009-6.766,3.846-10.378,4.249l1.214-25.922a3.864,3.864,0,0,0-3.86-3.86h-5.7c-.4-1.423-1.128-4.85-1.831-8.174-.778-3.679-1.582-7.483-2.05-9.074a.847.847,0,0,0-1.625.478c.45,1.528,1.248,5.3,2.019,8.946.67,3.169,1.307,6.182,1.733,7.824H116.328c.26-5.021,1.126-18.091,2.406-25.406.433-2.468.96-4.84,1.469-7.134.971-4.37,1.889-8.5,1.889-12.269a32.665,32.665,0,0,0-.354-4.055,27.25,27.25,0,0,1-.331-5.31,84.361,84.361,0,0,0,6.068,6.663.847.847,0,0,0,1.1-1.286,86.186,86.186,0,0,1-6.393-7.11.818.818,0,0,0-.341-.248,27.38,27.38,0,0,0,1.414-2.525,42.652,42.652,0,0,0,3.352-8.721c.217-.848.5-2.049.716-3.319a.846.846,0,0,0,.3-.073c2.2-1.014,2.591-3.558,2.907-5.6.058-.373.114-.735.179-1.075.057-.3.13-.578.2-.859.07,1.529.129,3.259.19,5.085.059,1.742.118,3.53.191,5.213a31.741,31.741,0,0,0,.714,5.817,28.661,28.661,0,0,1-1.423-6.284.846.846,0,1,0-1.688.125c.339,4.59,3.31,12.438,5.28,14.945a33.42,33.42,0,0,0,5.561,5.364l.542.448a.813.813,0,0,0,.193.11c.114.219.234.451.362.7a24.438,24.438,0,0,0,3.754,5.819c1.5,1.574,5.185,5.683,6.972,9.815.42.97,1.206,3.539,2.578,10.18a2.449,2.449,0,0,1-.527-.085.847.847,0,1,0-.5,1.62,5.013,5.013,0,0,0,1.385.15c4.126,0,13.575-2.451,14.71-5.476a.847.847,0,0,0-.5-1.09.835.835,0,0,0-1,.35c-1.54-4.085-2.771-7.33-2.983-7.889a13.131,13.131,0,0,1-1.016-5.8c.1-1.75.041-5.776-.184-11.643l-.009-.236a5.433,5.433,0,0,0-1.438-3.6c-.257-.26-.644-.661-1.069-1.1-.872-.9-1.86-1.925-2.3-2.325a5.217,5.217,0,0,0-2.752-1.09l-.555-.335-.809-.488c0-.019.007-.036,0-.056-.248-2.179-.682-12.037-.561-14.761.088-1.976-1-3.05-2.042-3.212-1.021-.162-2.272.486-2.754,2.282A57.756,57.756,0,0,0,148.132,84.3a3.9,3.9,0,0,0-.255.3c-.474.626-1.682,2.222-2.44,3.282a2.653,2.653,0,0,0-1.706-1.025,2.221,2.221,0,0,0-2.239,1.342,43.212,43.212,0,0,0-2.08,4.685,4.235,4.235,0,0,0-.3,1.655,25.33,25.33,0,0,1-3.6-3.675,21.071,21.071,0,0,1-2.243-4.329.842.842,0,0,0,1.227-1.016,25.564,25.564,0,0,1-1.506-8.285c-.073-1.678-.133-3.46-.191-5.2-.073-2.209-.143-4.3-.236-6.043a.85.85,0,0,0-.891-.8.823.823,0,0,0-.263.068,13.927,13.927,0,0,0,.66-3.289.848.848,0,0,0-.8-.894.858.858,0,0,0-.894.8,13.477,13.477,0,0,1-.69,3.234,23.421,23.421,0,0,0-.637,2.44c-.068.359-.128.741-.189,1.134a7.519,7.519,0,0,1-1.247,3.789,12.889,12.889,0,0,0,.039-1.977.835.835,0,0,0-.905-.784.846.846,0,0,0-.784.9,24.716,24.716,0,0,1-.992,6.9,41.09,41.09,0,0,1-3.232,8.4,26.142,26.142,0,0,1-5.627,7.583,8.78,8.78,0,0,1-6.043,2.588,10.661,10.661,0,0,1-7.285-2.228.847.847,0,0,0-1.061,1.32,12.134,12.134,0,0,0,7.812,2.611c.2,0,.4,0,.6-.011a10.452,10.452,0,0,0,7.12-3.028,25.521,25.521,0,0,0,2.425-2.567,36.166,36.166,0,0,0,.383,4.508,31.628,31.628,0,0,1,.34,3.841,57.087,57.087,0,0,1-1.81,11.729.84.84,0,0,0-.261.215c-2.757,3.405-7.179,6.155-9.822,7.611-.446-.25-.915-.51-1.4-.779-3.777-2.1-8.937-4.968-10.739-7.247-.446-4.217-.765-8.006-.765-10.081a65.664,65.664,0,0,1,.621-9.215c.076-.6.148-1.208.218-1.829.3.358.608.7.912,1.032a.847.847,0,0,0,1.241-1.152A40.245,40.245,0,0,1,93.132,83.1c-1.045-2.06-1.831-6.306-2.217-9.591a.847.847,0,0,0-1.682.2c.044.375.118.957.219,1.657a5.533,5.533,0,0,1-2.827-3.9.847.847,0,0,0-1.661.332c.55,2.747,2.643,5.069,4.782,5.395a26.733,26.733,0,0,0,1.877,6.673,40.25,40.25,0,0,0,3.709,5.678.837.837,0,0,0-.514.675c-.085.8-.18,1.563-.275,2.327a67.115,67.115,0,0,0-.634,9.424c0,5.589,2.259,23.3,3.175,28.975.773,4.789,1.27,8.639,1.751,12.362l.234,1.806a.817.817,0,0,0,.071.219H71.729a3.871,3.871,0,0,0-3.858,3.9l.218,4.737a.833.833,0,0,0-.243.286c-.33.661-.711,1.385-1.1,2.123-2.088,3.966-2.956,5.813-2.517,6.857.579,1.375,1.938,1.443,3.138,1.5.394.02.8.05,1.224.1l1.437,31.127a3.8,3.8,0,0,0,3.726,3.86H161.29a3.787,3.787,0,0,0,3.724-3.82l.9-19.183c4.021-.38,9.034-2.4,11.591-4.7,2.632-2.37,3.806-5.407,3.806-9.851A37.1,37.1,0,0,0,179.8,153.724ZM150.88,70c.2-.742.575-1.088.86-1.047.324.049.646.579.607,1.463-.108,2.426.217,10.4.469,13.849a10.2,10.2,0,0,0-1.807-.871,2.688,2.688,0,0,0-1.254-.041A57.188,57.188,0,0,1,150.88,70Zm-5.367,23.683.068-.495a15.991,15.991,0,0,1,.745-3.615q.421-.678,2.931-3.994a1.237,1.237,0,0,1,1.3-.551,14.748,14.748,0,0,1,2.05,1.073c-.077.007-.165.01-.236.02a4.079,4.079,0,0,0-2.7,2.142c-.482.735-1.152,1.983-1.69,2.987-.2.375-.383.714-.529.976a7.453,7.453,0,0,0-.95,2.979c-.022.2-.056.393-.089.586a.848.848,0,0,0-.289.09c-.058.032-.093.04-.09.042A2.788,2.788,0,0,1,145.513,93.681Zm-4.508-.222a40.847,40.847,0,0,1,1.986-4.474c.169-.321.342-.473.541-.45a1.438,1.438,0,0,1,.94,1.112c0,.013.013.021.016.034a27.174,27.174,0,0,0-.584,3.272l-.068.49c-.189,1.333.174,3.141,1.219,3.862a1.686,1.686,0,0,0,.965.306c.05,0,.1-.016.151-.02-.016.219-.026.456-.03.716-.03,2,1.213,3.122,2.458,3.2a2.942,2.942,0,0,0,2.107-.8,2.726,2.726,0,0,0,1.445.4,3.326,3.326,0,0,0,1.946-.6,5.282,5.282,0,0,0,1.39-3.787,4.574,4.574,0,0,0,.678-.564,3,3,0,0,0,1.047,1.362.847.847,0,0,0,1.023-1.35,1.594,1.594,0,0,1-.62-1.013,5.58,5.58,0,0,0-.49-1.2.847.847,0,0,0-1.5.05,3.173,3.173,0,0,1-1.449,1.521.847.847,0,0,0-.433,1.012,3.611,3.611,0,0,1-.709,2.648,1.645,1.645,0,0,1-1.463.066,2.278,2.278,0,0,0,.047-.793,6.638,6.638,0,0,1,.5-3.968,18.525,18.525,0,0,1,1.536-2.124c.185-.229.359-.444.518-.655a2.222,2.222,0,0,1,1.918-.55l.355.028a8.153,8.153,0,0,1,1.736.248.847.847,0,1,0,.464-1.628,9.578,9.578,0,0,0-2.068-.309l-.35-.028a3.739,3.739,0,0,0-3.406,1.216c-.15.2-.312.4-.485.613a20.248,20.248,0,0,0-1.665,2.3,8.5,8.5,0,0,0-.73,5.083.884.884,0,0,1-.277.687,1.289,1.289,0,0,1-.964.438c-.441-.028-.88-.544-.865-1.481a11.549,11.549,0,0,1,.21-2.019c.054-.311.105-.609.14-.93a5.766,5.766,0,0,1,.747-2.34c.148-.267.335-.614.54-1,.522-.974,1.172-2.186,1.613-2.857.617-.938,1.044-1.33,1.52-1.4a17.955,17.955,0,0,1,2.581-.011l.48.018a3.723,3.723,0,0,1,1.905.667c.4.364,1.41,1.41,2.222,2.25.431.447.824.853,1.085,1.116a3.783,3.783,0,0,1,.948,2.476l.009.237c.282,7.342.257,10.293.185,11.477a14.877,14.877,0,0,0,1.125,6.5c.224.589,1.588,4.184,3.251,8.6-2.356,1.438-7.438,2.8-10.546,3.146a72.138,72.138,0,0,0-2.738-10.779c-1.9-4.382-5.738-8.671-7.3-10.311a23.138,23.138,0,0,1-3.471-5.419,17.833,17.833,0,0,0-.992-1.8A2.375,2.375,0,0,1,141.005,93.46ZM67.451,163.045c-1.176-.058-1.515-.123-1.64-.4-.08-.7,1.486-3.673,2.427-5.462l.275,5.943C68.137,163.086,67.777,163.06,67.451,163.045Zm31.3-32.369c-.5-3.072-1.387-9.684-2.1-15.958a66.379,66.379,0,0,0,9.624,6.062c.631.351,1.236.687,1.8,1a.848.848,0,0,0,.818.008,42.171,42.171,0,0,0,8.994-6.36c-.291,1.369-.575,2.765-.826,4.2-1.3,7.442-2.179,20.712-2.434,25.7H100.673a.824.824,0,0,0,.075-.438l-.234-1.8C100.054,139.529,99.532,135.492,98.755,130.676Zm64.567,65.292a2.1,2.1,0,0,1-2.032,2.165H73.754a2.116,2.116,0,0,1-2.033-2.2l-2.157-46.734a2.168,2.168,0,0,1,2.166-2.166h91.617a2.161,2.161,0,0,1,2.167,2.126Z" transform="translate(-64.118 -61.074)" fill="#767e83"/>
            <path id="Path_79" data-name="Path 79" d="M192.232,115.937c-1.877,1.949-2.876,5.734-2.326,8.806a.847.847,0,0,0,1.668-.3,9.278,9.278,0,0,1,1.878-7.332.847.847,0,0,0-1.22-1.175Z" transform="translate(-101.089 -77.142)" fill="#767e83"/>
            <path id="Path_80" data-name="Path 80" d="M166.21,106.777c-4.3-.985-9.149-2.464-9.824-2.671-1.31-2.965-1.615-7.321-.786-12.23a.847.847,0,0,0-1.671-.282c-.544,3.227-1.4,11.217,2.442,15.7a.84.84,0,0,0,1.33-1.023c1.973.579,5.178,1.483,8.13,2.16a.833.833,0,0,0,.19.022.847.847,0,0,0,.189-1.672Z" transform="translate(-90.405 -69.847)" fill="#767e83"/>
            <path id="Path_81" data-name="Path 81" d="M181.008,136.063a.845.845,0,0,0-1.082.513c-3.1,8.693-4.265,21.562-4.826,27.746l-.1,1.12a.847.847,0,0,0,.765.922c.027,0,.054,0,.079,0a.847.847,0,0,0,.843-.769l.1-1.123c.555-6.115,1.709-18.84,4.734-27.33A.847.847,0,0,0,181.008,136.063Z" transform="translate(-96.745 -83.126)" fill="#767e83"/>
            <path id="Path_82" data-name="Path 82" d="M155.568,138.316l-5.06-1.212,4.215-1.6a.847.847,0,0,0,.544-.833c-.166-3.44-.946-13.326-2.536-17.7a.847.847,0,0,0-1.592.579c1.291,3.55,2.136,11.784,2.4,16.587l-6.2,2.358a.847.847,0,0,0,.1,1.615l6.767,1.622-.185.45c-2.584,6.282-6.124,14.888-8.564,19.708a.846.846,0,1,0,1.51.765c2.471-4.879,6.026-13.52,8.621-19.829l.561-1.365a.847.847,0,0,0-.586-1.146Z" transform="translate(-88.028 -77.359)" fill="#767e83"/>
          </g>
          <path id="Path_83" data-name="Path 83" d="M216.958,160.152a.847.847,0,0,1-.811-.606c-.373-1.254-1.034-3.493-1.7-5.731s-1.322-4.474-1.694-5.728a.847.847,0,0,1,1.624-.482c.373,1.254,1.034,3.493,1.7,5.731s1.322,4.474,1.694,5.728a.847.847,0,0,1-.812,1.088Z" transform="translate(-62.596 -53.905)" fill="#767e83"/>
        </g>
      </g>
    </g>
  </g>
</svg>
