<svg xmlns="http://www.w3.org/2000/svg" width="243.555" height="181.855" viewBox="0 0 243.555 181.855">
  <g id="Artwork_20" data-name="Artwork 20" transform="translate(121.778 90.928)">
    <g id="Group_73" data-name="Group 73" transform="translate(-121.778 -90.928)">
      <path id="Path_15" data-name="Path 15" d="M159.17,44.109a14.223,14.223,0,0,0-7.4,7.154c-2.183,4.649-3.827,13.143-3.827,18.466s.167,17.135,2.163,24.123,5.323,10.148,8.152,11.478,7.653.666,9.482-1a6.659,6.659,0,0,0,3.161-2.5c-7.32-6.488-11.435-11.614-13.475-18.632s-3.993-11.978-4.159-16.137,1-11.979,3.992-14.806c4.492,5.157,7.486,7.986,11.812,9.316s9.317,2,13.475.5c3.494,2,6.822,3.826,8.984,4.325A36.6,36.6,0,0,0,183.21,55.92c5.157,1.831,7.653,4.159,9.816,7.486s3.493,7.32,2.162,10.814S191.2,82.372,191.2,86.2s.832,9.483,2.994,12.145c5.324,2.329,9.15-.166,12.311-3.993a24.284,24.284,0,0,0,5.157-12.976c.166-3.66-1-10.148-3.161-13.475s-5.823-7.154-8.151-10.814-6.156-10.647-10.814-13.641a37.746,37.746,0,0,0-14.806-4.991c-2.994-.166-3.993,1.83-1.164,2.994s12.31,4.658,15.8,8.651c-6.322-1.831-11.729-2.5-15.722-3.577-2.672-.724-5.573-2-8.068-2.911C163.894,42.993,161.3,43.342,159.17,44.109Z" transform="translate(-36.676 -9.53)" fill="#f7c8c9"/>
      <path id="Path_16" data-name="Path 16" d="M20.261,231.088l77.857,4.991-2.662-9.649L18.1,222.271Z" transform="translate(-4.487 -55.103)" fill="#f7c8c9"/>
      <g id="Group_68" data-name="Group 68" transform="translate(76.776)">
        <path id="Path_17" data-name="Path 17" d="M114.81.5c2.683,3.744,4.232,5.866,5.092,7.243a4.654,4.654,0,0,1,.057,5.05c-1.118,1.636-3.586,5.078-4.963,6.8,3.012-2.5,5.738-4.189,7.029-5.135a3.676,3.676,0,0,1,4.188-.344c2.066,1.377,4.275,2.726,8.12,5.365-2.783-3.586-4.161-6.168-5.508-7.861A3.346,3.346,0,0,1,128.538,8c.861-1.263,3.9-5.279,6.111-8-3.069,2.267-7.431,5.48-8.549,5.91a3.646,3.646,0,0,1-3.615-.459C120.461,4.252,118.44,3.07,114.81.5Z" transform="translate(-105.238)" fill="#f6de63"/>
        <path id="Path_18" data-name="Path 18" d="M102.083,40.547c1.382,1.929,2.18,3.023,2.623,3.733a2.4,2.4,0,0,1,.03,2.6c-.577.842-1.848,2.617-2.557,3.5,1.552-1.286,2.956-2.159,3.621-2.646a1.893,1.893,0,0,1,2.158-.177c1.064.709,2.2,1.4,4.184,2.764-1.434-1.848-2.143-3.178-2.838-4.05a1.725,1.725,0,0,1-.148-1.862c.444-.651,2.01-2.72,3.149-4.124a44.652,44.652,0,0,1-4.405,3.045,1.878,1.878,0,0,1-1.863-.237C104.994,42.479,103.953,41.87,102.083,40.547Z" transform="translate(-102.083 -9.988)" fill="#f6de63"/>
        <path id="Path_19" data-name="Path 19" d="M233.11,6.352c1.382,1.929,2.18,3.023,2.624,3.733a2.4,2.4,0,0,1,.029,2.6c-.576.843-1.848,2.617-2.557,3.5,1.552-1.285,2.956-2.158,3.621-2.646a1.9,1.9,0,0,1,2.159-.177c1.064.71,2.2,1.4,4.183,2.765-1.434-1.848-2.143-3.178-2.838-4.05a1.726,1.726,0,0,1-.147-1.863c.444-.651,2.01-2.72,3.148-4.124a44.559,44.559,0,0,1-4.4,3.045,1.876,1.876,0,0,1-1.862-.236C236.022,8.284,234.98,7.675,233.11,6.352Z" transform="translate(-134.566 -1.511)" fill="#f6de63"/>
      </g>
      <g id="Group_72" data-name="Group 72" transform="translate(0 24.954)">
        <g id="Group_70" data-name="Group 70" transform="translate(2.188)">
          <g id="Group_69" data-name="Group 69" transform="translate(106.333)">
            <path id="Path_20" data-name="Path 20" d="M205.636,54.4a.9.9,0,0,1-.8-.49c-1.7-3.3-4.383-8.056-7.995-11.2-4.78-4.162-13.225-7.732-18.233-7.732l-.214,0c-6.3.131-10.2,1.23-11.942,3.357a.9.9,0,1,1-1.4-1.141c2.788-3.413,8.927-3.929,13.3-4.021l.246,0c5.465,0,14.282,3.7,19.424,8.174,3.845,3.348,6.643,8.3,8.413,11.734a.9.9,0,0,1-.8,1.316Z" transform="translate(-149.389 -33.179)" fill="#767e83"/>
            <path id="Path_21" data-name="Path 21" d="M197.318,71.455A.89.89,0,0,1,197,71.4a85.021,85.021,0,0,1-9.115-4.184c-3.328-1.743-11.636-6.33-16.9-11.248a.9.9,0,1,1,1.233-1.319c5.1,4.768,13.241,9.258,16.5,10.968a83.122,83.122,0,0,0,8.909,4.091.9.9,0,0,1-.315,1.749Z" transform="translate(-150.84 -38.441)" fill="#767e83"/>
            <path id="Path_22" data-name="Path 22" d="M205.755,102.168a.9.9,0,0,1-.789-.463c-1.5-2.686-1.84-6.9-.866-10.75a34.9,34.9,0,0,1,1.639-4.475,31.165,31.165,0,0,0,2.132-6.324c.681-4.024-1.1-10.131-5.822-14.011a.9.9,0,1,1,1.146-1.394c4.636,3.809,7.351,10.414,6.457,15.706a32.518,32.518,0,0,1-2.246,6.715A33.823,33.823,0,0,0,205.85,91.4c-.986,3.891-.363,7.538.693,9.427a.9.9,0,0,1-.787,1.342Z" transform="translate(-158.529 -40.955)" fill="#767e83"/>
            <path id="Path_23" data-name="Path 23" d="M146.7,85.956a.9.9,0,0,1-.891-.775c-.6-4.21-1.148-9.257-1.426-13.17-.622-8.781,2.249-18.054,4.044-22.148,2.137-4.876,4.946-7.739,8.839-9.011a.9.9,0,1,1,.561,1.716c-3.416,1.115-5.805,3.589-7.748,8.02-1.728,3.943-4.493,12.866-3.9,21.3.274,3.875.815,8.872,1.411,13.042a.9.9,0,0,1-.766,1.021A.941.941,0,0,1,146.7,85.956Z" transform="translate(-144.293 -35.07)" fill="#767e83"/>
            <path id="Path_24" data-name="Path 24" d="M160.774,114.669a10.68,10.68,0,0,1-6.056-2.436c-2.2-1.6-5.939-5.408-7.21-9.37a.9.9,0,0,1,1.719-.551c1.13,3.522,4.617,7.058,6.551,8.459,2.264,1.64,3.924,2.258,5.558,2.058a.9.9,0,0,1,.216,1.792A6.486,6.486,0,0,1,160.774,114.669Z" transform="translate(-145.079 -50.163)" fill="#767e83"/>
            <path id="Path_25" data-name="Path 25" d="M210.191,101.79a.9.9,0,0,1-.364-1.729c6.557-2.885,10.413-14.6,8.4-20.92a.9.9,0,1,1,1.72-.55c2.271,7.117-1.956,19.851-9.39,23.122A.893.893,0,0,1,210.191,101.79Z" transform="translate(-160.406 -44.281)" fill="#767e83"/>
            <path id="Path_26" data-name="Path 26" d="M216.976,110.863a.9.9,0,0,1-.4-1.712c4.727-2.332,7.152-10.319,5.749-14.98a.9.9,0,1,1,1.729-.52c2.007,6.667-2.012,14.816-6.679,17.118A.905.905,0,0,1,216.976,110.863Z" transform="translate(-162.088 -48.011)" fill="#767e83"/>
            <path id="Path_27" data-name="Path 27" d="M157.678,81.154a.9.9,0,0,1-.705-1.465c1.456-1.826,5.542-3,8.094-2.337a.9.9,0,0,1-.457,1.747c-1.875-.492-5.194.421-6.225,1.715A.9.9,0,0,1,157.678,81.154Z" transform="translate(-147.387 -44.083)" fill="#767e83"/>
            <path id="Path_28" data-name="Path 28" d="M182.519,82.822a1.745,1.745,0,1,0,1.341-2.071A1.745,1.745,0,0,0,182.519,82.822Z" transform="translate(-153.76 -44.963)" fill="#767e83"/>
            <path id="Path_29" data-name="Path 29" d="M162.149,87.937a1.745,1.745,0,1,0,1.341-2.071A1.745,1.745,0,0,0,162.149,87.937Z" transform="translate(-148.71 -46.231)" fill="#767e83"/>
            <path id="Path_30" data-name="Path 30" d="M172.48,97.988a.8.8,0,0,1-.134-.011.9.9,0,0,1-.76-1.024c.347-2.342.488-6.886-.072-8.969a.9.9,0,1,1,1.744-.469c.653,2.431.485,7.2.113,9.7A.9.9,0,0,1,172.48,97.988Z" transform="translate(-151.033 -46.484)" fill="#767e83"/>
            <path id="Path_31" data-name="Path 31" d="M187.857,104.253a.9.9,0,0,0-1.211-.4c-3.444,1.722-13.744,3.39-15.989,2.268a.9.9,0,1,0-.808,1.614,4.651,4.651,0,0,0,1.215.375,9.045,9.045,0,0,0,7.658,4.881,6.626,6.626,0,0,0,.89-.06,9.007,9.007,0,0,0,7.349-7.237c.177-.076.343-.151.492-.226A.9.9,0,0,0,187.857,104.253Zm-8.491,6.886a6.952,6.952,0,0,1-6.065-2.852l.093,0a45.04,45.04,0,0,0,11.5-1.867A7.093,7.093,0,0,1,179.366,111.139Z" transform="translate(-150.505 -50.675)" fill="#767e83"/>
            <path id="Path_32" data-name="Path 32" d="M183.6,67a.9.9,0,0,0-1.121-.608c-2.037.6-6.218.069-10.406-1.327A18.414,18.414,0,0,1,161.809,55.6a.9.9,0,0,0-1.616.8,20.226,20.226,0,0,0,11.313,10.37,35.463,35.463,0,0,0,6.063,1.44,14.227,14.227,0,0,0-4.421,1.834.9.9,0,0,0,1.024,1.487,17.273,17.273,0,0,1,8.313-2.2.9.9,0,0,0,.89-.916.882.882,0,0,0-.132-.431A.893.893,0,0,0,183.6,67Z" transform="translate(-148.211 -38.613)" fill="#767e83"/>
          </g>
          <path id="Path_33" data-name="Path 33" d="M180.015,154.845c-3.772,0-8.616-.549-11.466-2.992a.9.9,0,1,1,1.176-1.37c4.555,3.9,17.109,2.776,23.75.285a.9.9,0,0,1,.633,1.691,42.489,42.489,0,0,1-13.5,2.382C180.415,154.843,180.216,154.845,180.015,154.845Z" transform="translate(-43.895 -62.206)" fill="#767e83"/>
          <path id="Path_34" data-name="Path 34" d="M161.215,121.848a.9.9,0,0,0-1.268-.142c-3.163,2.529-7.14.286-9.042-1.837a29.887,29.887,0,0,1-5.168-9.952.9.9,0,0,0-1.728.522,31.387,31.387,0,0,0,5.55,10.633c.173.193.366.386.566.578-3.127.516-9.5,2.019-11.973,2.639-2.42.6-7.1,2.46-7.483,5.153a.9.9,0,0,0,.765,1.021.952.952,0,0,0,.129.009.9.9,0,0,0,.892-.775c.168-1.173,3.034-2.883,6.134-3.657,2.492-.623,8.967-2.152,11.978-2.635a.891.891,0,0,0,.738-.775,9.587,9.587,0,0,0,5.515,2.013,6.672,6.672,0,0,0,4.252-1.527A.9.9,0,0,0,161.215,121.848Z" transform="translate(-34.58 -52.044)" fill="#767e83"/>
          <path id="Path_35" data-name="Path 35" d="M133.368,152.984a.9.9,0,0,1-.884-.726,48.525,48.525,0,0,1-.818-9.618.9.9,0,0,1,.9-.9h.007a.9.9,0,0,1,.9.909,46.6,46.6,0,0,0,.783,9.251.9.9,0,0,1-.885,1.08Z" transform="translate(-34.829 -60.093)" fill="#767e83"/>
          <path id="Path_36" data-name="Path 36" d="M185.29,200.474a.9.9,0,0,1-.848-1.211c1.649-4.537,5.748-12.724,10.966-21.9,3.976-6.994,8.9-13.919,13.253-20.029,2.03-2.852,3.964-5.569,5.7-8.143l-7.753-.746a.9.9,0,0,1-.227-1.744l9.117-3.377q.037-.217.08-.455c.4-2.214,1.072-5.92-1.021-12.493a.9.9,0,1,1,1.72-.548c2.23,7,1.509,10.984,1.079,13.362-.062.342-.118.645-.154.915a.9.9,0,0,1-.581.727l-5.92,2.193,5.337.512a.9.9,0,0,1,.666,1.4c-1.962,2.967-4.2,6.115-6.573,9.446-4.324,6.075-9.224,12.961-13.155,19.874-5.17,9.093-9.222,17.176-10.838,21.624A.9.9,0,0,1,185.29,200.474Zm31.018-56.486h0Z" transform="translate(-47.899 -56.984)" fill="#767e83"/>
          <path id="Path_37" data-name="Path 37" d="M163.5,200.617a.9.9,0,0,1-.8-.477c-1.436-2.68-3.954-8.5-6.388-14.131-1.1-2.535-2.174-5.026-3.12-7.156-3.269-7.355-6.981-21.794-5-30.866a.9.9,0,0,1,.854-.708c.469-.014,2.881-.086,5.094-.15l-.317-.137c-2.276-.976-3.8-1.636-4.263-1.9a.9.9,0,0,1-.385-1.13c.85-2.041,8.89-10.638,11-12.829a.9.9,0,1,1,1.3,1.251,151.3,151.3,0,0,0-10.184,11.538c.844.38,2.137.934,3.245,1.41,4.595,1.97,4.595,1.97,4.431,2.767a.926.926,0,0,1-.9.726c-.273,0-4.84.134-8.247.235-1.547,8.633,2.022,22.315,5.019,29.059.948,2.134,2.028,4.631,3.127,7.173,2.42,5.595,4.922,11.381,6.322,13.995a.9.9,0,0,1-.794,1.329Z" transform="translate(-38.789 -57.394)" fill="#767e83"/>
          <path id="Path_38" data-name="Path 38" d="M277.731,206.231a.9.9,0,0,0-1.8.191c.921,8.623-6.388,11-8.65,11.529-5.507,1.277-11.51-.938-14.758-3.535-3.09-2.473-5.508-9.982-6.065-14.452a121.815,121.815,0,0,0-3.031-15.153,41.593,41.593,0,0,1-1.769-8.857,18.6,18.6,0,0,1,1.846-8.328,29.273,29.273,0,0,1,2.547-4.264.9.9,0,0,0-1.464-1.054,31.238,31.238,0,0,0-2.708,4.531A20.457,20.457,0,0,0,239.859,176a43.084,43.084,0,0,0,1.836,9.3c.329,1.167.709,2.712,1.091,4.426a.889.889,0,0,0-.087.205c-.746,3.624-1.328,12.757-1.676,18.214-.109,1.716-.2,3.1-.262,3.877a.9.9,0,0,0,.824.974l.076,0a.9.9,0,0,0,.9-.827c.065-.787.154-2.181.265-3.911.238-3.725.586-9.179,1.015-13.356.338,1.843.633,3.669.834,5.282.59,4.73,3.067,12.709,6.727,15.638a21.246,21.246,0,0,0,12.573,4.3,16.463,16.463,0,0,0,3.721-.414C273.107,218.454,278.586,214.254,277.731,206.231Z" transform="translate(-61.65 -65.098)" fill="#767e83"/>
          <path id="Path_39" data-name="Path 39" d="M100.8,238.962l-.059,0L21.4,233.808a.9.9,0,0,1-.842-.96.912.912,0,0,1,.959-.842l79.233,5.145c13.514-2.549,36.131-6.8,36.74-6.8a.9.9,0,0,1,.052,1.8c-1.091.126-22.436,4.122-36.569,6.788A.973.973,0,0,1,100.8,238.962Z" transform="translate(-7.284 -82.061)" fill="#767e83"/>
          <path id="Path_40" data-name="Path 40" d="M10.932,224.936h-.026l-7.119-.2a.9.9,0,0,1,.025-1.8h.027l7.119.2a.9.9,0,0,1-.025,1.8Z" transform="translate(-2.909 -80.219)" fill="#767e83"/>
          <path id="Path_41" data-name="Path 41" d="M231.592,231.22h-.026l-52.883-1.506a.9.9,0,0,1-.876-.927.882.882,0,0,1,.927-.876l52.883,1.506a.9.9,0,0,1-.025,1.805Z" transform="translate(-46.268 -81.453)" fill="#767e83"/>
          <path id="Path_42" data-name="Path 42" d="M314.724,233.588H314.7l-23.106-.658a.9.9,0,0,1-.876-.928.88.88,0,0,1,.927-.876l23.107.658a.9.9,0,0,1-.025,1.805Z" transform="translate(-74.259 -82.251)" fill="#767e83"/>
        </g>
        <path id="Path_43" data-name="Path 43" d="M170.328,199.953a.9.9,0,0,1-.856-.615c-1.326-3.945-4.261-15.437-5.514-20.343l-.379-1.482c-2.522-9.821-3.019-17.114-1.609-23.645.174-.809.354-1.667.542-2.563,1.574-7.489,3.729-17.746,8.012-25.877a.9.9,0,0,1,1.6.842c-4.165,7.907-6.291,18.021-7.842,25.406-.189.9-.369,1.76-.545,2.573-1.346,6.243-.854,13.28,1.594,22.815l.38,1.484c1.248,4.887,4.171,16.332,5.477,20.215a.9.9,0,0,1-.856,1.19Z" transform="translate(-39.961 -55.929)" fill="#767e83"/>
        <path id="Path_44" data-name="Path 44" d="M187.54,105.085a.9.9,0,0,0-1.269-.141,11.092,11.092,0,0,1-10.189,1.984c-3.459-.893-5.708-2.586-8.216-5.027-2.273-2.213-5.541-7.9-7.462-12.124a41.994,41.994,0,0,1-2.653-8.583c-.132-.611-.322-1.327-.544-2.157A45.065,45.065,0,0,1,155.9,72.91a22.022,22.022,0,0,1,2.135-12.215.9.9,0,0,0-1.641-.752A23.753,23.753,0,0,0,154.1,73.126a46.308,46.308,0,0,0,1.361,6.377c.214.807.4,1.5.521,2.07a43.8,43.8,0,0,0,2.775,8.953c1.65,3.627,5.1,10,7.847,12.668a23.841,23.841,0,0,0,4.783,3.768.861.861,0,0,0,.038.212,5.813,5.813,0,0,1-2.2,7.326.9.9,0,1,0,1,1.5,7.544,7.544,0,0,0,3.323-8.007,18,18,0,0,0,2.078.682,15.107,15.107,0,0,0,3.779.5,12.564,12.564,0,0,0,7.989-2.82A.9.9,0,0,0,187.54,105.085Z" transform="translate(-38.162 -39.683)" fill="#767e83"/>
        <path id="Path_45" data-name="Path 45" d="M132.049,192.483c-.091.014-9.176,1.409-18.143,2.862-10.7,1.732-15.337,2.519-17.351,3.065-.3-1.294-.9-3.934-1.7-7.485a.125.125,0,0,1,.018,0l35.41,1.7.044,0a.9.9,0,0,0,.043-1.8l-35.41-1.7a.861.861,0,0,0-.479.127C93.3,183.946,91.755,177,90.106,169.56c.482-.393.927-.748,1.333-1.072a33.954,33.954,0,0,0,2.986-2.566,6,6,0,0,1,3.818-1.443,2.933,2.933,0,0,1,2.185.889.892.892,0,0,0,.313.212c.525,3.726,1.912,7.653,4.377,12.947a47.809,47.809,0,0,1,2.586,9.592.9.9,0,0,0,.046.325.932.932,0,0,0,.717.622.884.884,0,0,0,.147.012.9.9,0,0,0,.72-.357c.247-.324.36-.473-.587-4.555a36.508,36.508,0,0,0-1.993-6.4c-4.392-9.432-5.246-14.309-3.8-21.742a22.189,22.189,0,0,0-.224-8.5.9.9,0,0,0-1.772.345,20.433,20.433,0,0,1,.224,7.808,31.614,31.614,0,0,0-.657,7.537,5.045,5.045,0,0,0-2.25-.542h-.093a7.723,7.723,0,0,0-5.029,1.973,32.567,32.567,0,0,1-2.835,2.431l-.644.514c-2.1-9.492-4.338-19.606-6.2-28.032,1.494-1.261,6.343-5.4,8.27-7.537.347-.386.7-.81,1.067-1.246,1.237-1.478,2.639-3.154,4.121-3.668a.9.9,0,1,0-.592-1.705c-1.954.678-3.527,2.557-4.913,4.215-.35.42-.691.827-1.024,1.2-1.589,1.767-5.431,5.1-7.369,6.75l-.87-3.945a.9.9,0,0,0-.881-.708H76.461a.283.283,0,0,0,.018-.033l1.335-3.743a.88.88,0,0,0,.025-.46A1.426,1.426,0,0,0,77.2,127.3a5.205,5.205,0,0,0-1.5-.838l.225-.866a.889.889,0,0,0-.152-.749h0a.883.883,0,0,0-.8-.8c.936-2.141,3.666-8.316,4.78-10.115a57.486,57.486,0,0,1,4.664-6.357c.49-.6.916-1.077,1.283-1.49,1.109-1.246,1.842-2.07,2.034-3.709.132-1.125.21-3.046.277-4.741.044-1.092.086-2.123.132-2.671.152-1.758-.9-3.087-2.052-4.262a35.223,35.223,0,0,1-2.986-3.718l-.1-.132a2.158,2.158,0,0,0-2.156-.954,2.975,2.975,0,0,0-2.134,2.167,5.151,5.151,0,0,0-.1,2.159,2.894,2.894,0,0,0-.665.015,2.843,2.843,0,0,0-1.516.684,2.869,2.869,0,0,0-1.9-.255,2.652,2.652,0,0,0-1.029.469,3.033,3.033,0,0,0-1.455-.75,3.978,3.978,0,0,0-3.311,1.071c-1.185.961-2.221,1.93-3.135,2.784-.531.5-1.006.941-1.418,1.294a5.865,5.865,0,0,0-1.692,4.3c-.05.772-.152,1.778-.26,2.843-.184,1.8-.391,3.833-.391,5.293l0,.977a25.424,25.424,0,0,1-.353,5.619c-.291,1.206-.777,2.692-1.289,4.124-.809-.044-2.412-.035-2.958.939a.872.872,0,0,0-.269.432l-.867,3.584c0-.011.005-.019.005-.029a.9.9,0,0,0-.9-.9c-1.552,0-3.007.153-3.346,1.148a.882.882,0,0,0-.312.465l-1.942,7.813a.886.886,0,0,0,.187.776H.9a.9.9,0,0,0-.879,1.106l14.221,61.417A.9.9,0,1,0,16,195.027L2.038,134.717H80.555l1.006,4.556a.883.883,0,0,0,.07.317c1.37,6.206,3.7,16.75,6.035,27.3,1.821,8.22,3.646,16.439,5.024,22.6.69,3.082,1.267,5.651,1.676,7.449.205.9.369,1.609.482,2.092.194.824.338,1.433,1.02,1.433a1.179,1.179,0,0,0,.142-.008.9.9,0,0,0,.438-.172c2.025-.69,22.431-3.958,35.874-6.021a.9.9,0,0,0-.273-1.785ZM78.191,92.021a1.281,1.281,0,0,1,1.139.461,5.535,5.535,0,0,1,1.011,2.792,18.07,18.07,0,0,1-.215,2.824,1.6,1.6,0,0,1-.95,1.177.65.65,0,0,1-.628-.191,7.606,7.606,0,0,0,.045-2.163,16.953,16.953,0,0,0-.962-4.643A1.024,1.024,0,0,1,78.191,92.021Zm-4.54,7.695a4.518,4.518,0,0,0,1.076-3.108,12.013,12.013,0,0,0-.262-3.91.788.788,0,0,1,.448-.272,1.134,1.134,0,0,1,.945.268,15.03,15.03,0,0,1,.936,4.379c.106,1.276.111,2.166-.754,2.887l-.283.236c-.646.541-1.735,1.454-2.035,1.3a1.437,1.437,0,0,1-.8-1.257A3.679,3.679,0,0,0,73.651,99.716Zm-10.407,15.27a26.642,26.642,0,0,0,.4-6.053l0-.966c0-1.369.2-3.357.381-5.11.111-1.082.215-2.105.265-2.912A4.255,4.255,0,0,1,65.358,96.9c.429-.367.924-.829,1.476-1.346.893-.834,1.9-1.78,3.038-2.7a2.367,2.367,0,0,1,1.825-.7,1.525,1.525,0,0,1,.96.786,9.921,9.921,0,0,1,.269,3.554c-.068,1.071-.221,1.627-.526,1.922a2.931,2.931,0,0,1-1.782.681c-.886-.017-1.179-.247-1.407-.666a.24.24,0,0,1-.037-.1c.014-.043.236-.27.936-.32a.9.9,0,0,0-.018-1.8c-.34-.019-.918-.109-.969-.505a.9.9,0,1,0-1.791.223,2.173,2.173,0,0,0,.511,1.176,1.992,1.992,0,0,0-.254.361,1.887,1.887,0,0,0,.038,1.837,3.153,3.153,0,0,0,2.953,1.6h.06a3.636,3.636,0,0,0,.563-.053,3.189,3.189,0,0,0,1.746,2.28c.032.015.063.02.095.032-2.013,1.6-3.7,3.647-3.747,5.894a.9.9,0,0,0,.88.924H70.2a.9.9,0,0,0,.9-.881c.073-3.125,5.3-6.357,7.949-7.316a.9.9,0,0,0,.585-.764l.013,0A3.337,3.337,0,0,0,81.9,98.43a18.234,18.234,0,0,0,.235-2.589l.924,1.109L82.271,95a.886.886,0,0,0,.249-.335,1.353,1.353,0,0,1,.721-.787.9.9,0,0,0-.55-1.719,2.748,2.748,0,0,0-1.115.71,12.529,12.529,0,0,0-.7-1.319,4.548,4.548,0,0,1-.417-3.014,1.247,1.247,0,0,1,.725-.868c.111-.016.232.066.372.255l.1.133a36.438,36.438,0,0,0,3.15,3.91c1.2,1.216,1.614,1.986,1.541,2.841-.051.59-.091,1.592-.138,2.753-.067,1.663-.142,3.548-.266,4.6-.126,1.075-.555,1.557-1.591,2.72-.381.428-.823.926-1.331,1.546a58.971,58.971,0,0,0-4.8,6.55c-1.353,2.186-4.742,9.977-5.18,10.989a53.638,53.638,0,0,1-11.965-2.441A58.715,58.715,0,0,0,63.244,114.986Zm-3.708,5.5c-.026.068-.053.141-.079.208-.1-.068-.189-.132-.259-.188C59.292,120.5,59.408,120.49,59.536,120.486Zm-1.2,1.618a8.576,8.576,0,0,0,.872.548c3.144,1.721,11.485,3.05,14.792,3.173l-.6,2.295c-3.317-.237-11.675-1.079-15.967-2.3Zm-3.126,2.41a.9.9,0,0,0,.812-.521l-.294,1.215c-.62-.266-1.078-.49-1.4-.666C54.562,124.525,54.853,124.515,55.209,124.515Zm19.592,8.4H51.181a.892.892,0,0,0,.18-.341l1.665-6.7a16.193,16.193,0,0,0,2.353,1.151c4.422,1.834,17,2.861,18.744,2.953.257.014.5.02.719.02.281,0,.531-.011.76-.03l-.822,2.307A.894.894,0,0,0,74.8,132.911Z" transform="translate(0 -46.238)" fill="#767e83"/>
        <g id="Group_71" data-name="Group 71" transform="translate(134.538 25.129)">
          <path id="Path_46" data-name="Path 46" d="M263.579,100.252a19.844,19.844,0,0,0-3.314-4.18l-.056-.123c-1.574-3.508-2.556-5.243-3.284-5.8a.9.9,0,0,0-1.1,1.43c.2.157.878.969,2.738,5.111l.125.279a.909.909,0,0,0,.184.264,18.444,18.444,0,0,1,3.146,3.925c.857,1.478.86,1.869.03,2.612-.485.433-1.276,1.121-2.169,1.9-1.707,1.484-3.831,3.33-4.877,4.325-.176.167-.352.332-.526.494-1.45,1.351-2.949,2.748-3.029,4.91a28.417,28.417,0,0,0,.107,4.171c-1.385.092-3.108.232-4.853.441a55.484,55.484,0,0,0-6.283,1.168c-.3-2-.767-4.459-1.116-6.3l-.279-1.478a24.5,24.5,0,0,1,.211-9.028c.073-.283.166-.59.275-.915a.9.9,0,1,0-1.71-.578q-.188.557-.314,1.045a26.143,26.143,0,0,0-.238,9.8l.28,1.487c.141.74.3,1.583.462,2.455a10.691,10.691,0,0,0-3.682-1.394l-.538-.131c-2.183-.542-18.08-5.327-20.057-5.922l-3.918-3.639a13.919,13.919,0,0,0,1.822-1.1c3.832-2.714,6.356-7.689,7.519-10.411,1.694-3.965,1.849-10.475.368-15.481a33.29,33.29,0,0,0-4.4-8.472,36.658,36.658,0,0,1-2.4-4.01.9.9,0,1,0-1.632.771,37.905,37.905,0,0,0,2.516,4.225,31.862,31.862,0,0,1,4.186,8c1.352,4.569,1.224,10.7-.3,14.259-1.088,2.548-3.433,7.19-6.9,9.647-2.752,1.949-5.519,2.374-8,1.227a.9.9,0,1,0-.757,1.64,8.9,8.9,0,0,0,1.608.562c.614,1.111.828,4.922.4,7.246-.926,5-5.145,14.31-9.224,23.312-2.741,6.051-5.577,12.307-7.37,17.179a277.745,277.745,0,0,0-8.325,30.967.9.9,0,1,0,1.77.354,280.9,280.9,0,0,1,8.247-30.7c1.771-4.811,4.593-11.036,7.322-17.057,4.123-9.1,8.388-18.51,9.354-23.728a20.351,20.351,0,0,0-.174-7.333h.008a9.046,9.046,0,0,0,2.5-.371l4.709,4.372a.9.9,0,0,0,.353.2c.734.221,17.983,5.42,20.343,6.007l.551.134c1.623.389,3.157.757,3.832,1.918a.9.9,0,0,0,.748.444q.106.645.193,1.239c-.32.088-.519.146-.554.156a.9.9,0,0,0-.636,1.009l.479,2.989c-.153.035-.3.069-.431.1-2.359.416-4.672,1.093-4.77,1.121a.9.9,0,0,0-.624,1.069c.454,1.973,1.149,7.131,1.763,11.681.487,3.62.948,7.039,1.252,8.622.286,1.491.73,4.175,1.2,7.017.644,3.891,1.373,8.3,1.842,10.49.074.345.172.858.265,1.491a.889.889,0,0,0-.142-.139.9.9,0,0,0-1.249.264c-1.728,2.658-2.941,6.881-1.163,10.761a.9.9,0,1,0,1.64-.752c-1.473-3.214-.43-6.77,1.036-9.024.007-.01.008-.023.014-.034a24.533,24.533,0,0,1-.013,5.414c-.387,3.23-.583,6.384,1.257,9.449a.9.9,0,1,0,1.549-.928c-1.4-2.333-1.433-4.813-1.013-8.307a27.346,27.346,0,0,0-.414-8.573c-.46-2.146-1.185-6.535-1.826-10.406-.472-2.854-.918-5.55-1.209-7.064-.3-1.534-.752-4.928-1.237-8.523-.571-4.243-1.16-8.615-1.616-11,.875-.233,2.35-.6,3.835-.867a144.209,144.209,0,0,1,16.828-2.3c.711,6.9,1.743,15.413,2.578,22.308l.363,3c.46,3.809,1.126,10.926,1.77,17.81.242,2.583.482,5.15.71,7.525a.9.9,0,0,0,1.8-.172c-.227-2.374-.467-4.94-.709-7.522-.645-6.9-1.312-14.025-1.774-17.857l-.363-3c-.868-7.161-1.949-16.074-2.658-23.09a.893.893,0,0,0-.721-.781l-.238-3.314a.891.891,0,0,0-.928-.837c-.013,0-.461.014-1.191.05a27.192,27.192,0,0,1-.105-4c.053-1.417,1.166-2.456,2.456-3.657q.27-.25.539-.506c1.017-.969,3.123-2.8,4.816-4.27.9-.782,1.7-1.476,2.189-1.913C265.321,103.26,264.272,101.45,263.579,100.252Zm-9.842,21,.167,2.333c-3.318.23-10.086,1.089-14.184,1.84l-.34-2.122a57.544,57.544,0,0,1,7.535-1.5C249.682,121.466,252.4,121.311,253.737,121.25Z" transform="translate(-178.884 -66.591)" fill="#767e83"/>
          <path id="Path_47" data-name="Path 47" d="M259.49,106.64a.9.9,0,0,0,1.2-.436,64.23,64.23,0,0,1,4.027-7.329c.163-.244.323-.49.478-.733a5.859,5.859,0,0,0-.271,1.449,8.933,8.933,0,0,0-1.145,3.763l-.029.178a15.65,15.65,0,0,0-.084,3.808A1.82,1.82,0,0,0,265.5,109.1a3.054,3.054,0,0,0,2.133-1.072,4.969,4.969,0,0,0,1.612-3.587l.037-.033c.195-.174.394-.36.59-.551a5.079,5.079,0,0,0,3.6,2.061.9.9,0,0,0,0-1.806,3.724,3.724,0,0,1-2.511-1.859c-.012-.024-.033-.039-.047-.062a.888.888,0,0,0-.6-.949.9.9,0,0,0-1.136.581,4,4,0,0,1-1.094,1.239c-.117.1-.234.208-.346.311a.9.9,0,0,0-.29.663,3.282,3.282,0,0,1-1.087,2.716c-.511.511-.83.558-.862.553a.224.224,0,0,1-.031-.111,13.961,13.961,0,0,1,.065-3.366l.03-.18c.132-.8.441-2.661.81-2.972a.842.842,0,0,0,.078-.077c.008-.008.02-.011.028-.02a6.606,6.606,0,0,1,1.916-1.645,7.67,7.67,0,0,1,2.82.409l.507.128a15.414,15.414,0,0,1,2.384.981c.438.206.873.411,1.282.586a.9.9,0,0,0,.711-1.66c-.39-.166-.805-.363-1.224-.56a16.41,16.41,0,0,0-2.72-1.1l-.493-.124a8.138,8.138,0,0,0-3.723-.407l-.016.005a2.523,2.523,0,0,1,.472-.3,9.6,9.6,0,0,1,5.1-.088.9.9,0,1,0,.5-1.734,11.481,11.481,0,0,0-2.114-.338.865.865,0,0,0,.02-.165c-.165-2.125-.825-3.4-1.958-3.8a2.5,2.5,0,0,0-2.643.862,22.041,22.041,0,0,0-2.357,3.48c-.535.894-1.088,1.818-1.717,2.762a66,66,0,0,0-4.161,7.568A.9.9,0,0,0,259.49,106.64Zm9.122-13.782c.294-.317.588-.43.727-.385.205.071.628.631.754,2.234l0,.008a7.141,7.141,0,0,0-2.463.541,4.4,4.4,0,0,0-1.177.828l.028-.046A21.148,21.148,0,0,1,268.612,92.858Z" transform="translate(-198.738 -72.557)" fill="#767e83"/>
          <path id="Path_48" data-name="Path 48" d="M265.983,117.172a.9.9,0,0,0,1.57.89c2.11-3.724,6.53-5.409,8.374-5.285a.9.9,0,1,0,.106-1.8C273.377,110.828,268.413,112.887,265.983,117.172Z" transform="translate(-200.448 -77.592)" fill="#767e83"/>
        </g>
      </g>
    </g>
  </g>
</svg>
